<?xml version="1.0" encoding="UTF-8"?>
<svg width="410" height="254" xmlns="http://www.w3.org/2000/svg">
<style>text {
    color: #a89f9bff;
}

tspan {
    fill: #f3f3f3;
}

/* @media (prefers-color-scheme: dark) {
}
@media (prefers-color-scheme: light) {
    tspan {
        fill: #333;
        fill: #f3f3f3;
    }
} */

@keyframes fadeIn {
    from {
        opacity: 0;
    }
    to {
        opacity: 1;
    }
}
@keyframes slideIn {
    from {
        width: 0;
    }
    to {
        width: 660;
    }
}

#lang_legend,
#title {
    opacity: 0;
    animation: fadeIn 1s ease-in forwards;
}
#bar_back {
    animation: slideIn 1.7s ease-in forwards;
}
</style>
<rect id="border" x="1" y="1" width="408" height="252" fill='#19140fff' stroke-width="1" rx="15" ry="15" />
<text id="title" x="20" y="40" font-size="18" font-weight="bold" fill='#db4c0fff' font-family="system-ui, -apple-system, sans-serif">Most Used Languages</text>

<defs>
    <clipPath id="roundedClip">
        <rect id="bar_back" x="20" y="60" width="370" height="10" rx="5" ry="5">
        </rect>
    </clipPath>
</defs>
<rect width="370" height="10" x="20" y="60" rx="5" ry="5" fill='#ccc' />
<g clip-path="url(#roundedClip)">
    <rect x="20" y="60" width="146" height="10" fill="#f1e05a"> <title>JavaScript 39.32%</title> </rect>
    <rect x="166" y="60" width="131" height="10" fill="#e34c26"> <title>HTML 35.46%</title> </rect>
    <rect x="297" y="60" width="34" height="10" fill="#3178c6"> <title>TypeScript 9.18%</title> </rect>
    <rect x="331" y="60" width="33" height="10" fill="#3572A5"> <title>Python 8.99%</title> </rect>
    <rect x="364" y="60" width="18" height="10" fill="#663399"> <title>CSS 4.87%</title> </rect>
    <rect x="382" y="60" width="4" height="10" fill="#89e051"> <title>Shell 1.13%</title> </rect>
    <rect x="386" y="60" width="2" height="10" fill="#DA5B0B"> <title>Jupyter Notebook 0.42%</title> </rect>
    <rect x="388" y="60" width="1" height="10" fill="#012456"> <title>PowerShell 0.31%</title> </rect>
    <rect x="389" y="60" width="1" height="10" fill="#fcb32c"> <title>MDX 0.17%</title> </rect>
    <rect x="390" y="60" width="0" height="10" fill="#3D6117"> <title>TeX 0.10%</title> </rect>
    <rect x="390" y="60" width="0" height="10" fill="#C1F12E"> <title>Batchfile 0.04%</title> </rect>
    <rect x="390" y="60" width="0" height="10" fill="#15dcdc"> <title>VBScript 0.01%</title> </rect>
</g>
<g id="lang_legend">
<circle cx="30" cy="100" r="6" fill="#f1e05a" />
<text x="46" y="104" font-size="13" font-family="system-ui, -apple-system, sans-serif" fill='currentColor'><tspan>JavaScript</tspan> 39.32%</text>
<circle cx="225" cy="100" r="6" fill="#e34c26" />
<text x="241" y="104" font-size="13" font-family="system-ui, -apple-system, sans-serif" fill='currentColor'><tspan>HTML</tspan> 35.46%</text>
<circle cx="30" cy="124" r="6" fill="#3178c6" />
<text x="46" y="128" font-size="13" font-family="system-ui, -apple-system, sans-serif" fill='currentColor'><tspan>TypeScript</tspan> 9.18%</text>
<circle cx="225" cy="124" r="6" fill="#3572A5" />
<text x="241" y="128" font-size="13" font-family="system-ui, -apple-system, sans-serif" fill='currentColor'><tspan>Python</tspan> 8.99%</text>
<circle cx="30" cy="148" r="6" fill="#663399" />
<text x="46" y="152" font-size="13" font-family="system-ui, -apple-system, sans-serif" fill='currentColor'><tspan>CSS</tspan> 4.87%</text>
<circle cx="225" cy="148" r="6" fill="#89e051" />
<text x="241" y="152" font-size="13" font-family="system-ui, -apple-system, sans-serif" fill='currentColor'><tspan>Shell</tspan> 1.13%</text>
<circle cx="30" cy="172" r="6" fill="#DA5B0B" />
<text x="46" y="176" font-size="13" font-family="system-ui, -apple-system, sans-serif" fill='currentColor'><tspan>Jupyter Notebook</tspan> 0.42%</text>
<circle cx="225" cy="172" r="6" fill="#012456" />
<text x="241" y="176" font-size="13" font-family="system-ui, -apple-system, sans-serif" fill='currentColor'><tspan>PowerShell</tspan> 0.31%</text>
<circle cx="30" cy="196" r="6" fill="#fcb32c" />
<text x="46" y="200" font-size="13" font-family="system-ui, -apple-system, sans-serif" fill='currentColor'><tspan>MDX</tspan> 0.17%</text>
<circle cx="225" cy="196" r="6" fill="#3D6117" />
<text x="241" y="200" font-size="13" font-family="system-ui, -apple-system, sans-serif" fill='currentColor'><tspan>TeX</tspan> 0.10%</text>
<circle cx="30" cy="220" r="6" fill="#C1F12E" />
<text x="46" y="224" font-size="13" font-family="system-ui, -apple-system, sans-serif" fill='currentColor'><tspan>Batchfile</tspan> 0.04%</text>
<circle cx="225" cy="220" r="6" fill="#15dcdc" />
<text x="241" y="224" font-size="13" font-family="system-ui, -apple-system, sans-serif" fill='currentColor'><tspan>VBScript</tspan> 0.01%</text>
</g>
</svg>
